<svg xmlns="http://www.w3.org/2000/svg" viewBox="0 0 128 128" role="img" aria-label="VVK">
  <defs>
    <linearGradient id="ring" x1="0%" y1="0%" x2="100%" y2="100%">
      <stop offset="0%" stop-color="#1e3a5f"/>
      <stop offset="100%" stop-color="#0f2744"/>
    </linearGradient>
    <linearGradient id="gold" x1="0%" y1="0%" x2="100%" y2="0%">
      <stop offset="0%" stop-color="#c9a227"/>
      <stop offset="100%" stop-color="#e8c547"/>
    </linearGradient>
  </defs>
  <circle cx="64" cy="64" r="62" fill="url(#ring)" stroke="url(#gold)" stroke-width="4"/>
  <circle cx="64" cy="64" r="48" fill="#ffffff" stroke="#c9a227" stroke-width="2"/>
  <path d="M64 28 L88 42 V62 C88 78 76 90 64 94 C52 90 40 78 40 62 V42 Z" fill="#b91c1c" opacity="0.92"/>
  <path d="M64 36 L80 46 V60 C80 72 72 82 64 85 C56 82 48 72 48 60 V46 Z" fill="#ffffff"/>
  <rect x="58" y="48" width="12" height="2" rx="1" fill="#1e3a5f"/>
  <rect x="54" y="54" width="20" height="2" rx="1" fill="#1e3a5f"/>
  <rect x="54" y="60" width="20" height="2" rx="1" fill="#1e3a5f"/>
  <text x="64" y="112" text-anchor="middle" font-family="Georgia, 'Times New Roman', serif" font-size="14" font-weight="700" fill="#ffffff" letter-spacing="2">VVK</text>
</svg>
